<?xml version="1.0" standalone="no"?>
<!DOCTYPE svg PUBLIC "-//W3C//DTD SVG 20010904//EN"
 "http://www.w3.org/TR/2001/REC-SVG-20010904/DTD/svg10.dtd">
<svg version="1.0" xmlns="http://www.w3.org/2000/svg"
 width="540.000000pt" height="384.000000pt" viewBox="0 0 540.000000 384.000000"
 preserveAspectRatio="xMidYMid meet">
<metadata>
Created by potrace 1.16, written by Peter Selinger 2001-2019
</metadata>
<g transform="translate(0.000000,384.000000) scale(0.100000,-0.100000)"
fill="#000000" stroke="none">
<path d="M2180 3770 c-400 -49 -726 -245 -853 -512 -61 -125 -72 -179 -72
-333 0 -158 20 -252 77 -366 88 -176 251 -301 515 -392 149 -52 135 -56 187
50 68 140 138 237 257 356 59 60 102 110 96 112 -7 2 -66 18 -132 35 -258 66
-345 139 -345 290 0 143 104 245 300 296 97 25 305 23 439 -5 178 -37 372
-123 520 -229 42 -30 81 -57 88 -59 11 -4 13 53 11 293 l-3 299 -90 34 c-116
43 -319 94 -465 115 -136 20 -424 29 -530 16z"/>
<path d="M3075 2880 c-94 -11 -203 -34 -289 -62 -70 -22 -236 -98 -236 -108 0
-3 35 -15 78 -24 193 -46 407 -138 522 -225 l65 -50 97 6 c124 8 228 -9 343
-54 139 -55 265 -133 400 -248 122 -104 115 -119 115 244 l0 308 -88 41 c-185
86 -306 124 -497 157 -109 19 -400 27 -510 15z"/>
<path d="M2405 2611 c-81 -66 -157 -149 -222 -239 -53 -74 -146 -254 -135
-263 4 -4 81 -23 172 -44 219 -49 308 -78 371 -121 29 -19 56 -37 60 -40 5 -2
23 28 42 69 48 104 95 173 163 240 75 74 159 130 236 159 l60 22 -33 28 c-48
40 -209 121 -313 157 -69 24 -312 92 -328 91 -2 0 -35 -27 -73 -59z"/>
<path d="M4559 2493 c-12 -21 -48 -79 -81 -130 -39 -59 -58 -99 -56 -114 8
-58 223 -186 387 -230 62 -17 79 -25 65 -30 -10 -5 -50 -20 -89 -35 -147 -56
-365 -201 -365 -242 0 -9 34 -71 75 -137 109 -176 94 -161 140 -137 22 11 129
74 239 140 198 121 292 164 434 199 37 9 72 20 78 24 12 10 9 358 -3 370 -4 4
-56 23 -115 42 -138 46 -230 89 -465 214 -106 57 -199 103 -207 103 -8 0 -24
-17 -37 -37z"/>
<path d="M610 2404 c-226 -125 -372 -194 -490 -233 -117 -40 -123 -45 -115
-90 4 -20 7 -97 6 -172 -1 -98 3 -139 12 -146 6 -6 52 -20 102 -32 127 -32
210 -69 394 -176 246 -144 290 -167 300 -160 6 3 25 34 44 68 18 34 55 97 82
139 46 75 47 78 32 102 -45 67 -238 183 -382 227 -41 13 -75 26 -75 29 0 3 33
16 73 29 167 53 387 185 387 233 0 25 -166 278 -183 278 -7 0 -91 -43 -187
-96z"/>
<path d="M3121 2330 c-173 -62 -320 -215 -398 -413 -23 -60 -25 -72 -15 -101
28 -77 9 -201 -40 -253 -20 -21 -20 -30 -15 -175 4 -120 11 -175 31 -252 14
-55 30 -104 34 -108 5 -5 43 5 85 21 232 89 409 243 502 436 60 124 78 210 77
370 0 144 -20 242 -67 337 -37 72 -104 158 -124 158 -9 -1 -40 -10 -70 -20z"/>
<path d="M2007 2008 c-48 -167 -68 -286 -70 -424 l-2 -89 60 -12 c184 -38 415
-21 535 39 l65 33 8 60 c4 33 14 96 22 139 l15 80 -32 34 c-60 61 -187 105
-503 172 -27 6 -58 13 -67 16 -13 4 -20 -7 -31 -48z"/>
<path d="M1240 1465 l0 -304 28 -14 c130 -67 633 -199 659 -174 3 3 -2 38 -10
79 -17 83 -36 242 -40 336 l-2 64 -90 29 c-126 40 -334 146 -438 224 -48 36
-92 65 -97 65 -6 0 -10 -111 -10 -305z"/>
<path d="M2548 1469 c-69 -36 -150 -50 -303 -55 -107 -4 -173 -1 -230 9 -44 8
-80 14 -81 13 0 0 3 -59 8 -129 7 -112 40 -315 54 -339 3 -4 94 -8 202 -8 187
0 335 14 433 40 l38 10 -14 33 c-23 57 -47 186 -59 317 l-11 128 -37 -19z"/>
<path d="M2655 949 c-88 -27 -227 -42 -427 -48 l-217 -6 39 -94 c153 -370 441
-611 850 -708 89 -21 138 -26 316 -30 231 -6 326 3 482 43 129 34 235 71 364
130 l108 49 0 303 c0 264 -2 302 -15 302 -9 0 -55 -33 -103 -74 -322 -271
-625 -352 -932 -250 -170 57 -293 159 -392 325 -22 38 -41 69 -42 68 0 0 -14
-5 -31 -10z"/>
</g>
</svg>
